<svg width="512" height="512" viewBox="0 0 512 512" fill="none" xmlns="http://www.w3.org/2000/svg">
  <defs>
    <linearGradient id="g1" x1="96" y1="80" x2="416" y2="432" gradientUnits="userSpaceOnUse">
      <stop stop-color="#8b7cf8"/>
      <stop offset="1" stop-color="#5a4bd0"/>
    </linearGradient>
  </defs>
  <rect x="8" y="8" width="496" height="496" rx="112" fill="url(#g1)"/>

  <!-- Text lines -->
  <rect x="86" y="128" width="170" height="24" rx="12" fill="white" opacity="0.95"/>
  <rect x="86" y="184" width="130" height="24" rx="12" fill="white" opacity="0.9"/>
  <rect x="86" y="240" width="156" height="24" rx="12" fill="white" opacity="0.85"/>

  <!-- Speaker -->
  <path d="M248 190L320 142V370L248 322H200C181.222 322 166 306.778 166 288V224C166 205.222 181.222 190 200 190H248Z" fill="white"/>

  <!-- Sound waves -->
  <path d="M337 199C358 214 370 237 370 256C370 275 358 298 337 313" stroke="white" stroke-width="22" stroke-linecap="round" opacity="0.95"/>
  <path d="M362 165C391 190 408 222 408 256C408 290 391 322 362 347" stroke="white" stroke-width="20" stroke-linecap="round" opacity="0.72"/>
</svg>
